<svg width="1000" height="1000" viewBox="0 0 1000 1000" fill="none" xmlns="http://www.w3.org/2000/svg">
<g clip-path="url(#clip0_325_4)">
<path d="M238.664 796.867C236.06 794.263 233.781 791.333 231.828 788.078C229.875 784.172 228.247 779.289 226.945 773.43C217.831 762.362 210.669 749.667 205.461 735.344C200.253 721.021 196.672 706.372 194.719 691.398C192.766 675.773 192.44 660.148 193.742 644.523C195.044 628.898 197.323 614.25 200.578 600.578C202.531 594.068 204.159 587.232 205.461 580.07C208.716 567.701 211.971 555.656 215.227 543.938C218.482 531.568 223.365 521.477 229.875 513.664C227.271 506.503 227.596 498.69 230.852 490.227C234.107 481.763 237.362 473.951 240.617 466.789C241.919 464.836 242.896 463.208 243.547 461.906C244.198 459.953 244.849 458.326 245.5 457.023C253.312 434.237 260.799 412.427 267.961 391.594C275.773 370.109 283.26 349.602 290.422 330.07C303.443 294.263 315.812 259.107 327.531 224.602C339.901 190.096 350.969 153.312 360.734 114.25C365.943 110.344 370.5 107.74 374.406 106.438C375.708 105.786 377.336 105.135 379.289 104.484C381.242 103.833 383.521 103.508 386.125 103.508C399.797 110.669 415.747 117.505 433.977 124.016C452.857 129.875 468.807 132.805 481.828 132.805L498.43 147.453C506.893 157.219 514.055 167.635 519.914 178.703C526.424 189.12 528.378 202.792 525.773 219.719C521.867 225.578 518.612 229.159 516.008 230.461C512.102 245.435 507.87 258.781 503.312 270.5C498.755 281.568 494.198 292.31 489.641 302.727C484.432 314.445 479.549 326.164 474.992 337.883C470.435 349.602 466.529 363.924 463.273 380.852C459.367 385.409 456.763 389.315 455.461 392.57C454.81 395.826 453.833 399.081 452.531 402.336C451.229 406.242 449.602 410.474 447.648 415.031C445.695 418.938 442.766 422.518 438.859 425.773C436.255 445.956 432.349 462.557 427.141 475.578C421.932 487.948 416.724 500.318 411.516 512.688C402.401 535.474 393.938 558.26 386.125 581.047C378.312 603.182 373.755 628.573 372.453 657.219C380.266 655.266 387.427 654.289 393.938 654.289C402.401 654.289 410.539 655.591 418.352 658.195C441.789 646.477 467.18 639.315 494.523 636.711C522.518 634.107 550.188 632.479 577.531 631.828C600.318 631.828 621.477 630.852 641.008 628.898C647.518 633.456 651.75 636.06 653.703 636.711C655.656 636.711 658.911 636.711 663.469 636.711C665.422 636.711 667.375 636.711 669.328 636.711C671.281 636.711 673.885 637.036 677.141 637.688C686.255 646.802 695.044 653.312 703.508 657.219C711.971 660.474 721.086 663.729 730.852 666.984C739.315 670.24 747.453 673.82 755.266 677.727C763.729 680.982 771.867 685.539 779.68 691.398L788.469 741.203C793.677 748.365 795.956 753.247 795.305 755.852C795.305 761.06 794.003 765.617 791.398 769.523L793.352 782.219C780.982 784.823 772.844 787.753 768.938 791.008C765.031 793.612 760.799 797.193 756.242 801.75C749.081 802.401 742.245 802.727 735.734 802.727C722.714 802.727 709.367 804.68 695.695 808.586C676.164 801.424 654.68 797.844 631.242 797.844C622.128 797.844 612.688 798.169 602.922 798.82C593.807 799.471 584.693 800.448 575.578 801.75C565.812 803.052 556.047 804.354 546.281 805.656C536.516 806.307 526.75 806.633 516.984 806.633C509.172 807.935 503.638 808.911 500.383 809.562C497.128 810.214 493.872 811.19 490.617 812.492C468.482 819.654 444.393 826.815 418.352 833.977C392.961 841.138 367.245 844.719 341.203 844.719C302.792 844.719 271.867 834.953 248.43 815.422C245.826 809.562 243.872 805.656 242.57 803.703C241.268 801.75 239.966 799.471 238.664 796.867Z" fill="url(#paint0_linear_325_4)"/>
</g>
<defs>
<linearGradient id="paint0_linear_325_4" x1="499.5" y1="-291" x2="499.5" y2="1166" gradientUnits="userSpaceOnUse">
<stop stop-color="#75C760"/>
<stop offset="1" stop-color="#40982A"/>
</linearGradient>
<clipPath id="clip0_325_4">
<rect width="1000" height="1000" fill="white"/>
</clipPath>
</defs>
</svg>
