<svg width="500" height="500" viewBox="0 0 500 500" fill="none" xmlns="http://www.w3.org/2000/svg">
<rect width="500" height="500" rx="10" fill="#040000"/>
<path d="M230 415H35.5V105.5H97.5V364H230V415ZM346.5 410.5C325.5 408.5 308.5 405.167 295.5 400.5C282.833 395.833 273.333 391.667 267 388L286 339C296.667 344 309.167 348.667 323.5 353C337.833 357 353 359 369 359C387.667 359 400.667 356.667 408 352C415.333 347 419 339.333 419 329C419 323 417.5 317.833 414.5 313.5C411.833 309.167 407.667 305.333 402 302C396.667 298.333 390 295.167 382 292.5C374 289.5 365 286.167 355 282.5C345.333 279.167 335.833 275.333 326.5 271C317.167 266.667 308.833 261.5 301.5 255.5C294.167 249.167 288.167 241.667 283.5 233C279.167 224 277 213 277 200C277 190.667 278.167 181.667 280.5 173C283.167 164.333 287.167 156.333 292.5 149C298.167 141.667 305.5 135.333 314.5 130C323.5 124.333 334.5 120 347.5 117V68.5H404.5V114.5C419.833 115.833 433.333 118.167 445 121.5C457 124.833 466.333 127.833 473 130.5L459 182C449.333 178 437.833 174.5 424.5 171.5C411.5 168.167 398 166.5 384 166.5C368 166.5 356.833 169.333 350.5 175C344.5 180.667 341.5 187.333 341.5 195C341.5 200.333 342.5 204.833 344.5 208.5C346.833 211.833 350.167 214.833 354.5 217.5C359.167 220.167 364.667 222.833 371 225.5C377.333 227.833 384.833 230.5 393.5 233.5C406.5 238.5 418.5 243.833 429.5 249.5C440.5 254.833 450 261.167 458 268.5C466 275.5 472.167 283.833 476.5 293.5C481.167 303.167 483.5 314.5 483.5 327.5C483.5 336.5 482.167 345.5 479.5 354.5C476.833 363.167 472.333 371.333 466 379C460 386.333 451.833 392.833 441.5 398.5C431.5 403.833 418.833 407.667 403.5 410V463.5H346.5V410.5Z" fill="#00FF00"/>
</svg>
